<?xml version="1.0" standalone="no"?>
<!DOCTYPE svg PUBLIC "-//W3C//DTD SVG 20010904//EN"
 "http://www.w3.org/TR/2001/REC-SVG-20010904/DTD/svg10.dtd">
<svg version="1.0" xmlns="http://www.w3.org/2000/svg"
 width="2159.000000pt" height="2159.000000pt" viewBox="0 0 2159.000000 2159.000000"
 preserveAspectRatio="xMidYMid meet">
<metadata>
Created by potrace 1.16, written by Peter Selinger 2001-2019
</metadata>
<g transform="translate(0.000000,2159.000000) scale(0.100000,-0.100000)"
fill="#000000" stroke="none">
<path d="M10300 21584 c-278 -14 -558 -36 -700 -54 -520 -67 -685 -94 -1029
-166 -714 -150 -1387 -363 -2071 -656 -209 -89 -738 -349 -940 -463 -1512
-847 -2767 -1999 -3722 -3415 -347 -514 -691 -1136 -926 -1670 -468 -1068
-762 -2197 -867 -3326 -32 -356 -37 -442 -42 -885 -7 -591 14 -1013 77 -1514
211 -1675 810 -3271 1755 -4670 403 -598 798 -1077 1320 -1601 718 -721 1496
-1310 2405 -1819 206 -115 733 -375 943 -464 1012 -431 1969 -687 3057 -816
646 -76 1503 -86 2220 -25 828 70 1768 273 2570 554 1821 637 3402 1722 4675
3206 746 870 1390 1943 1818 3030 431 1094 672 2208 737 3405 13 243 13 875 0
1115 -73 1346 -368 2591 -902 3810 -172 391 -472 956 -710 1339 -905 1452
-2163 2690 -3623 3563 -370 222 -898 494 -1255 646 -899 385 -1844 651 -2755
776 -304 42 -405 54 -545 66 -74 6 -187 15 -250 21 -110 10 -1103 20 -1240 13z
m1060 -3285 c2205 -155 4190 -1245 5514 -3029 345 -463 650 -1000 879 -1540
132 -313 124 -273 137 -631 35 -939 -72 -1793 -320 -2539 -625 -1883 -2159
-3068 -4478 -3460 -648 -109 -1428 -154 -2084 -119 -223 12 -378 25 -313 28
992 35 1850 371 2635 1030 151 126 419 393 554 551 704 823 1179 1882 1350
3010 53 348 61 467 61 900 0 413 -5 502 -46 800 -183 1330 -826 2495 -1844
3344 -930 775 -2191 1297 -3642 1507 -120 17 -225 34 -233 37 -58 20 621 104
990 122 191 10 629 4 840 -11z m-2290 -509 c2420 -104 4072 -973 4954 -2608
390 -724 617 -1593 677 -2599 15 -255 6 -966 -15 -1208 -30 -330 -98 -823
-126 -910 l-10 -30 5 35 c23 177 13 597 -21 845 -157 1154 -789 2180 -1819
2953 -827 621 -1843 1012 -2930 1127 -207 22 -716 31 -930 16 -1028 -73 -1953
-399 -2766 -977 -565 -402 -1060 -922 -1472 -1545 -162 -246 -272 -436 -417
-724 -331 -655 -576 -1365 -756 -2189 -20 -88 -37 -162 -38 -164 -9 -8 -51
406 -66 648 -41 671 38 1472 217 2184 554 2214 2117 4074 4209 5012 286 128
287 128 414 134 200 11 646 10 890 0z m775 -3160 c380 -20 708 -56 1060 -115
223 -38 508 -96 501 -102 -2 -3 -55 1 -118 8 -171 20 -638 17 -818 -5 -522
-63 -960 -195 -1415 -426 -659 -334 -1237 -828 -1713 -1465 -916 -1225 -1324
-2814 -1101 -4285 181 -1196 763 -2285 1664 -3111 905 -830 2050 -1412 3520
-1790 l130 -34 -60 -6 c-128 -15 -450 -29 -640 -29 -662 0 -1464 112 -2112
295 -181 51 -591 199 -817 295 -463 196 -898 428 -1266 673 -120 80 -472 344
-599 450 -831 689 -1482 1506 -1951 2452 -77 154 -170 352 -207 440 l-68 160
1 400 c0 390 9 592 40 920 95 1013 323 1874 689 2605 321 642 735 1158 1267
1582 120 96 430 305 563 380 727 412 1620 654 2605 707 217 12 630 12 845 1z
m1240 -1731 c977 -84 1760 -823 1901 -1795 23 -157 23 -438 1 -594 -81 -557
-375 -1055 -818 -1386 -228 -169 -457 -280 -724 -349 -198 -52 -322 -67 -540
-67 -219 0 -342 15 -544 68 -1072 279 -1737 1356 -1515 2454 83 413 289 788
595 1086 437 424 1034 636 1644 583z m7255 -1714 c19 -311 1 -911 -36 -1230
-162 -1416 -710 -2731 -1595 -3835 -823 -1026 -1920 -1832 -3139 -2307 l-115
-45 -195 7 c-882 28 -1530 109 -2199 275 -1060 263 -1920 715 -2584 1360 -790
766 -1277 1782 -1457 3037 -125 880 -93 1874 91 2803 31 156 47 208 36 115
-35 -281 -34 -714 3 -985 131 -981 600 -1875 1376 -2619 832 -799 1985 -1356
3169 -1530 368 -55 852 -76 1190 -52 883 62 1674 309 2405 749 712 430 1346
1048 1847 1802 494 744 886 1641 1149 2634 27 102 29 106 35 70 4 -22 12 -133
19 -249z"/>
</g>
</svg>
