<?xml version="1.0" standalone="no"?>
<!DOCTYPE svg PUBLIC "-//W3C//DTD SVG 20010904//EN"
 "http://www.w3.org/TR/2001/REC-SVG-20010904/DTD/svg10.dtd">
<svg version="1.0" xmlns="http://www.w3.org/2000/svg"
 width="500.000000pt" height="499.000000pt" viewBox="0 0 500.000000 499.000000"
 preserveAspectRatio="xMidYMid meet">

<g transform="translate(0.000000,499.000000) scale(0.100000,-0.100000)"
fill="#000000" stroke="none">
<path d="M2240 4800 c-52 -10 -120 -23 -151 -29 -131 -26 -373 -152 -524 -274
-89 -72 -232 -225 -293 -315 -123 -180 -214 -391 -233 -542 -30 -242 -33 -370
-12 -527 l5 -43 -249 0 c-287 0 -313 -5 -392 -76 -128 -115 -131 -298 -7 -420
81 -79 104 -84 396 -84 136 0 249 -3 252 -6 9 -8 -27 -160 -57 -244 -63 -175
-158 -308 -304 -425 -101 -81 -172 -119 -359 -191 -147 -57 -188 -81 -245
-143 -45 -51 -67 -107 -67 -173 0 -39 22 -124 40 -158 19 -36 81 -110 92 -110
5 0 28 -15 51 -34 74 -60 201 -110 371 -147 50 -11 94 -23 97 -27 4 -4 14 -32
24 -62 41 -129 121 -216 225 -247 58 -17 51 -17 355 18 102 12 191 8 250 -13
23 -8 101 -54 175 -104 256 -169 309 -199 380 -213 25 -5 88 -19 140 -31 225
-52 531 -33 800 48 33 11 113 56 210 121 236 159 342 201 499 201 46 0 123 -7
170 -16 162 -30 268 -10 356 68 43 37 62 71 90 163 l22 70 139 36 c161 41 237
69 291 106 21 15 57 39 81 55 71 49 112 116 133 215 11 52 10 70 -4 129 -15
57 -25 77 -65 117 -56 58 -82 72 -265 143 -171 67 -240 103 -298 155 -24 22
-61 52 -81 66 -121 83 -273 377 -293 566 l-7 67 244 0 c289 0 313 5 394 84
124 122 121 305 -7 420 -79 71 -106 76 -385 76 -134 0 -245 3 -247 8 -3 4 0
65 5 137 10 125 7 199 -21 425 -21 175 -148 444 -295 625 -90 111 -223 232
-343 313 -83 56 -275 154 -343 175 -199 61 -551 84 -740 47z"/>
</g>
</svg>
